<?xml version="1.0" encoding="UTF-8"?>
<svg version="1.1" xmlns="http://www.w3.org/2000/svg" width="512" height="512">
<path d="M0 0 C1.06557129 0.18804199 2.13114258 0.37608398 3.22900391 0.56982422 C43.85930508 7.87108063 82.59692901 23.64894004 116 48 C116.58120605 48.4228125 117.16241211 48.845625 117.76123047 49.28125 C125.9942468 55.3220989 133.6346302 61.93200324 141 69 C141.9266748 69.87785156 141.9266748 69.87785156 142.87207031 70.7734375 C153.03367845 80.43874608 161.87210027 90.57529656 170 102 C170.66805664 102.92498291 170.66805664 102.92498291 171.34960938 103.86865234 C187.67429787 126.62072386 197.87325978 151.81198533 204 179 C204.18079102 179.77375977 204.36158203 180.54751953 204.54785156 181.34472656 C210.21987263 206.68276104 209.14193944 236.92041396 203 262 C202.77505859 262.91894043 202.55011719 263.83788086 202.31835938 264.78466797 C194.04385199 297.52367964 178.06668174 328.10030947 154.98828125 352.859375 C153.20992158 354.77399406 151.54300062 356.73995368 149.875 358.75 C105.11664026 409.93201322 33.87372532 434.7688202 -32.08569336 439.4934082 C-42.62218302 440.16279986 -52.96658826 440.52054417 -63.4453125 439.03515625 C-80.2135166 436.56006178 -80.2135166 436.56006178 -95.54125977 442.61547852 C-98.7967873 445.27621202 -101.89168745 448.04818641 -104.90087891 450.984375 C-107.97954825 453.94058506 -111.31939295 456.51090027 -114.6875 459.125 C-115.88966332 460.09301584 -117.09018622 461.06307242 -118.2890625 462.03515625 C-123.03424668 465.85093708 -127.8841762 469.52829952 -132.73291016 473.2109375 C-136.64410835 476.18512422 -140.51976039 479.19483328 -144.35668945 482.26416016 C-180.01343643 510.70994628 -180.01343643 510.70994628 -203 509 C-208.68423657 507.41945851 -212.72716921 502.73352373 -216 498 C-222.22903722 479.31288833 -212.59109057 456.48848996 -207.44921875 438.609375 C-207.13293518 437.508284 -206.81665161 436.40719299 -206.49078369 435.2727356 C-204.87332107 429.64982902 -203.2424223 424.03140612 -201.58740234 418.41943359 C-200.97617357 416.32391172 -200.36500559 414.22837212 -199.75390625 412.1328125 C-199.31530525 410.66723907 -199.31530525 410.66723907 -198.86784363 409.17205811 C-198.60667252 408.27110413 -198.3455014 407.37015015 -198.07641602 406.44189453 C-197.84358414 405.65348175 -197.61075226 404.86506897 -197.37086487 404.05276489 C-196.79635589 401.8111753 -196.79635589 401.8111753 -198 399 C-200.07932103 397.52282186 -202.13371219 396.18828906 -204.3125 394.875 C-211.166998 390.60507106 -217.63457931 385.9770779 -224 381 C-224.86753906 380.32710938 -225.73507813 379.65421875 -226.62890625 378.9609375 C-232.40330239 374.36551643 -237.84975557 369.46372842 -243.25 364.4375 C-243.91161133 363.82438965 -244.57322266 363.2112793 -245.25488281 362.57958984 C-271.96530735 337.44233567 -291.3424436 303.18643801 -300.3125 267.75 C-300.55500488 266.79287109 -300.79750977 265.83574219 -301.04736328 264.84960938 C-304.47847833 250.62078741 -305.40956472 236.75728159 -305.375 222.1875 C-305.37412384 221.28403839 -305.37324768 220.38057678 -305.37234497 219.44973755 C-305.18677418 161.29416264 -280.19004022 109.18115316 -239.5 68.25 C-233.29137286 62.09139337 -227.00354885 56.25497457 -220 51 C-219.3920459 50.53207031 -218.7840918 50.06414063 -218.15771484 49.58203125 C-185.19553697 24.28899503 -146.70516981 8.66027354 -106 1 C-104.89462891 0.78972168 -103.78925781 0.57944336 -102.65039062 0.36279297 C-69.7651294 -5.57404021 -32.87023936 -6.18328674 0 0 Z M-119 38 C-119.8451416 38.22026855 -120.6902832 38.44053711 -121.56103516 38.66748047 C-158.67247998 48.56530335 -190.20583779 67.8499995 -218 94 C-219.06347656 94.98226562 -219.06347656 94.98226562 -220.1484375 95.984375 C-226.49210044 102.04322042 -231.73516016 109.00997013 -237 116 C-237.6290625 116.83402344 -238.258125 117.66804688 -238.90625 118.52734375 C-253.4267254 138.56149023 -263.33289686 160.95259233 -269 185 C-269.17789063 185.74830078 -269.35578125 186.49660156 -269.5390625 187.26757812 C-277.93117108 224.53253644 -270.68320953 265.99735155 -252 299 C-251.6376123 299.64791504 -251.27522461 300.29583008 -250.90185547 300.96337891 C-244.48760398 312.33523684 -236.90272997 322.04605183 -228.08984375 331.6875 C-226.31643159 333.64985514 -224.61849755 335.64661409 -222.9375 337.6875 C-219.62931446 341.55003015 -215.91663032 344.76664475 -212 348 C-211.47760742 348.43473633 -210.95521484 348.86947266 -210.41699219 349.31738281 C-200.00547205 357.94975617 -189.27754814 366.01106882 -177.41796875 372.5625 C-176.65081543 372.99159668 -175.88366211 373.42069336 -175.09326172 373.86279297 C-173.61783503 374.67931577 -172.13157053 375.47667879 -170.63330078 376.25048828 C-166.19066032 378.70287658 -163.85857465 381.09221425 -161.6003418 385.64013672 C-160.07029978 391.65452716 -161.08167908 397.28802622 -162.74414062 403.15039062 C-163.02211739 404.14700714 -163.02211739 404.14700714 -163.30570984 405.16375732 C-163.91275418 407.3308215 -164.53432274 409.49341501 -165.15625 411.65625 C-165.58314311 413.16913687 -166.00911352 414.68228438 -166.4342041 416.19567871 C-167.54951718 420.15694159 -168.67724391 424.11456313 -169.80767822 428.0715332 C-170.96140095 432.11846258 -172.10323017 436.16874336 -173.24609375 440.21875 C-175.48583262 448.14914308 -177.73870967 456.07572536 -180 464 C-175.92617955 464 -173.77436903 461.95567859 -170.625 459.625 C-169.99924072 459.16947754 -169.37348145 458.71395508 -168.72875977 458.24462891 C-163.66445929 454.53885626 -158.68059194 450.72938576 -153.72265625 446.8828125 C-145.52899287 440.52687401 -137.26671137 434.26043199 -129 428 C-128.14970215 427.35353516 -127.2994043 426.70707031 -126.42333984 426.04101562 C-106.84423671 411.18974503 -94.76578194 403.69097132 -69.75 406 C-7.41628366 411.25551604 57.15280283 393.67447066 106 354 C108.66841801 351.71836067 111.27519013 349.39694786 113.84375 347.00390625 C115.84701924 345.14217233 117.90573297 343.3826884 120 341.625 C143.62618481 320.94022776 160.68879594 291.09389726 169 261 C169.24411621 260.11973145 169.48823242 259.23946289 169.73974609 258.33251953 C176.47803436 232.88515402 176.65316623 204.50013214 170 179 C169.82339844 178.30036133 169.64679688 177.60072266 169.46484375 176.87988281 C162.00992799 148.20606794 146.49566366 122.23647078 126 101 C125.42765625 100.401875 124.8553125 99.80375 124.265625 99.1875 C115.71110333 90.28523354 107.10885067 82.11273349 97 75 C96.17677246 74.41025391 96.17677246 74.41025391 95.33691406 73.80859375 C64.06736537 51.51672064 27.79104256 38.01167057 -10 32 C-11.02601318 31.83226074 -11.02601318 31.83226074 -12.07275391 31.66113281 C-47.44261074 26.0367312 -84.48105384 28.97413915 -119 38 Z " fill="#000000" transform="translate(305,3)"/>
<path d="M0 0 C4.1796989 2.8497947 7.11864324 5.98092971 8.75 10.875 C8.90029988 12.93862991 8.99844448 15.00623915 9.06640625 17.07421875 C9.12356812 18.70750122 9.12356812 18.70750122 9.18188477 20.3737793 C9.22545193 21.77001863 9.26898445 23.16625905 9.3125 24.5625 C9.39023985 26.93726582 9.46830407 29.31202104 9.54663086 31.68676758 C9.61442057 33.74951172 9.68221029 35.81225586 9.75 37.875 C10.21940506 37.40115372 10.68881012 36.92730743 11.17243958 36.43910217 C16.04911997 31.51825155 20.9327655 26.60439425 25.82055664 21.69458008 C27.64495383 19.86011142 29.46755382 18.02385364 31.28833008 16.18579102 C33.90238073 13.54754278 36.52277949 10.91574886 39.14453125 8.28515625 C39.96025101 7.45911392 40.77597076 6.63307159 41.6164093 5.78199768 C42.37697128 5.02128464 43.13753326 4.26057159 43.92114258 3.47680664 C44.58954666 2.80396133 45.25795074 2.13111603 45.9466095 1.43788147 C49.75010904 -1.85836465 54.24217278 -1.4567119 59.0234375 -1.40625 C64.12874325 -0.8796282 66.74976047 1.76662647 70.0625 5.4375 C72.29134611 8.65694439 72.93495405 11.28519547 73.0625 15.125 C73.11857422 16.21554688 73.11857422 16.21554688 73.17578125 17.328125 C71.86008948 25.19813446 65.47200633 30.54959708 60.046875 35.87109375 C59.20908508 36.70463882 58.37129517 37.5381839 57.50811768 38.39698792 C54.8457377 41.04265235 52.1730887 43.67766014 49.5 46.3125 C47.68681072 48.11063334 45.87430301 49.90945424 44.0625 51.70898438 C39.63286118 56.10564841 35.19475714 60.49362305 30.75 64.875 C33.27424707 68.71847804 35.80129586 72.19779282 38.9375 75.5625 C42.16155157 79.08204566 45.25102771 82.66173658 48.25 86.375 C51.13006532 89.93889365 54.08401078 93.37925073 57.1875 96.75 C60.72723581 100.63933935 64.03236877 104.65680239 67.25 108.8125 C67.68368896 109.36856934 68.11737793 109.92463867 68.56420898 110.49755859 C72.3047348 115.39138193 73.16030555 118.72041674 72.75 124.875 C70.92698367 130.74916372 68.58361931 133.37833923 63.75 136.875 C61.13467863 138.18266068 59.04733841 138.19042764 56.125 138.3125 C55.12210937 138.37308594 54.11921875 138.43367187 53.0859375 138.49609375 C44.99493142 136.98968864 39.84374911 130.04810168 35 123.875 C33.78769845 122.36619025 32.57413473 120.85839385 31.359375 119.3515625 C30.45735352 118.22669434 30.45735352 118.22669434 29.53710938 117.07910156 C26.83691771 113.74886518 24.05128704 110.49528479 21.25 107.25 C20.78239258 106.70730469 20.31478516 106.16460937 19.83300781 105.60546875 C18.9374051 104.56690297 18.04126351 103.52880159 17.14453125 102.49121094 C14.67205125 99.62569665 12.21148729 96.74995701 9.75 93.875 C9.7406543 94.80248047 9.73130859 95.72996094 9.72167969 96.68554688 C9.67740154 100.1600788 9.61567286 103.63342406 9.54248047 107.10742188 C9.5144306 108.60470447 9.49313726 110.10213075 9.47900391 111.59960938 C9.32288586 127.21141405 9.32288586 127.21141405 4.75 133.875 C-0.22090805 137.93288412 -4.31066897 138.45641086 -10.6640625 138.1953125 C-15.53775267 137.59162278 -18.26838419 135.93620628 -21.5625 132.375 C-23.93132907 128.8656236 -24.37641625 126.25228528 -24.39717102 122.11956787 C-24.40432632 121.14110397 -24.41148163 120.16264008 -24.41885376 119.15452576 C-24.42154266 118.08227249 -24.42423157 117.01001923 -24.42700195 115.90527344 C-24.43357315 114.77491165 -24.44014435 113.64454987 -24.44691467 112.47993469 C-24.46665902 108.73141415 -24.47831264 104.98293369 -24.48828125 101.234375 C-24.49235678 99.95505348 -24.4964323 98.67573196 -24.50063133 97.35764313 C-24.51934466 91.28518603 -24.53390948 85.21274904 -24.5422433 79.14026904 C-24.5520106 72.13954363 -24.5783186 65.13913484 -24.61874419 58.13852096 C-24.65259002 52.06820609 -24.66439217 45.99802392 -24.66844749 39.92761993 C-24.67332083 37.34883731 -24.68495591 34.77005824 -24.70348549 32.19133759 C-24.72781322 28.5814032 -24.72692298 24.97229583 -24.7199707 21.36230469 C-24.73278076 20.29814835 -24.74559082 19.233992 -24.75878906 18.1375885 C-24.71451529 11.82698622 -23.97767935 8.02393913 -20.25 2.875 C-14.45037544 -2.08013961 -6.95827978 -2.40863531 0 0 Z " fill="#000000" transform="translate(381.25,166.125)"/>
<path d="M0 0 C6.81592327 4.64722041 9.32832681 10.89233613 12.24902344 18.33081055 C12.66755081 19.37049988 13.08607819 20.41018921 13.51728821 21.48138428 C14.89197938 24.90400006 16.2507536 28.33269592 17.609375 31.76171875 C18.56295466 34.14530283 19.51749741 36.52850182 20.47296143 38.91133118 C22.46988629 43.89766426 24.46009756 48.88658634 26.44384766 53.87817383 C29.24145239 60.91761189 32.05263903 67.95156367 34.86696959 74.98432863 C38.84301435 84.92181271 42.81211139 94.86206794 46.76855469 104.80737305 C47.15918594 105.78768997 47.5498172 106.7680069 47.95228577 107.7780304 C48.30824326 108.67379791 48.66420074 109.56956543 49.03094482 110.49247742 C49.34062572 111.27097392 49.65030663 112.04947042 49.9693718 112.85155773 C51.82765614 117.6683592 52.38246833 121.74497907 51.75 126.875 C49.21759618 131.8460149 45.76138866 135.36930567 40.75 137.875 C38.8384583 138.04955695 36.91895944 138.14215146 35 138.1875 C33.97390625 138.22488281 32.9478125 138.26226562 31.890625 138.30078125 C27.84555343 137.75238224 25.86620378 136.49690939 22.75 133.875 C20.80859375 130.87890625 20.80859375 130.87890625 19.1875 127.4375 C18.64996094 126.32503906 18.11242187 125.21257812 17.55859375 124.06640625 C15.11666585 118.40725152 12.96257664 112.62769926 10.75 106.875 C-1.46 106.545 -13.67 106.215 -26.25 105.875 C-27.24 109.175 -28.23 112.475 -29.25 115.875 C-32.26997374 124.40316505 -35.59932636 132.38699477 -43 137.9375 C-48.92021429 139.64525412 -54.14389118 138.92805441 -59.625 136.1875 C-63.35394935 132.90247319 -65.95644635 130.43729711 -66.54523087 125.29806328 C-66.67264113 117.64144732 -65.30111405 111.81491728 -62.36621094 104.78564453 C-61.95323257 103.74989792 -61.54025421 102.71415131 -61.11476135 101.64701843 C-59.7578717 98.25887021 -58.37180148 94.88355763 -56.984375 91.5078125 C-56.02826704 89.14102441 -55.07380473 86.77357092 -54.12091064 84.40548706 C-52.1259149 79.45975678 -50.11806832 74.51956275 -48.09814453 69.58398438 C-45.51159955 63.26367345 -42.95083616 56.93324894 -40.39803696 50.59924507 C-37.95733886 44.54400729 -35.5017708 38.49480448 -33.046875 32.4453125 C-32.58140007 31.29468449 -32.11592514 30.14405647 -31.63634491 28.95856094 C-30.31512078 25.6987526 -28.98472445 22.44284944 -27.65136719 19.18798828 C-27.26366653 18.22788345 -26.87596588 17.26777863 -26.47651672 16.27857971 C-21.22533053 3.53729936 -21.22533053 3.53729936 -15.25 -0.125 C-10.0828841 -1.84737197 -5.14400242 -1.78061622 0 0 Z M-8.25 59.875 C-9.9 64.495 -11.55 69.115 -13.25 73.875 C-9.62 73.875 -5.99 73.875 -2.25 73.875 C-4.56364085 66.80699136 -4.56364085 66.80699136 -7.25 59.875 C-7.58 59.875 -7.91 59.875 -8.25 59.875 Z " fill="#000000" transform="translate(210.25,166.125)"/>
<path d="M0 0 C0.7205658 -0.0065712 1.44113159 -0.0131424 2.18353271 -0.01991272 C4.57393496 -0.03966037 6.96427423 -0.05131353 9.35473633 -0.0612793 C10.1716073 -0.06535482 10.98847828 -0.06943035 11.83010292 -0.07362938 C16.15642673 -0.09449964 20.48271875 -0.10879534 24.80908203 -0.11816406 C29.27015241 -0.12921083 33.73072154 -0.16358758 38.1916151 -0.20333576 C41.62753705 -0.22953439 45.06334038 -0.23785892 48.49935341 -0.24144554 C50.14313441 -0.24630571 51.78691031 -0.25790351 53.43059349 -0.27648354 C55.73798131 -0.30093777 58.04408368 -0.29989883 60.3515625 -0.29296875 C61.66235275 -0.29883499 62.97314301 -0.30470123 64.32365417 -0.31074524 C69.27680303 0.34652858 73.22815602 2.10404682 76.55786133 6.0012207 C79.53413761 12.31092642 80.17849356 17.77034911 77.87426758 24.42700195 C75.35677879 28.11931884 72.47349926 31.35890922 68.09204102 32.80761719 C65.83382621 33.20620317 63.74512134 33.29014961 61.45239258 33.2746582 C60.60805664 33.27143555 59.7637207 33.26821289 58.89379883 33.26489258 C57.58475586 33.25232422 57.58475586 33.25232422 56.24926758 33.23950195 C55.36110352 33.23499023 54.47293945 33.23047852 53.55786133 33.22583008 C51.37159429 33.21407595 49.18546579 33.19764444 46.99926758 33.17700195 C47.00926033 34.9422673 47.00926033 34.9422673 47.01945496 36.74319458 C47.0802868 47.83726955 47.12525026 58.93131065 47.15470409 70.0255146 C47.17035568 75.72907593 47.19158497 81.43250253 47.22558594 87.13598633 C47.25819706 92.6408203 47.27612441 98.14552473 47.28389931 103.65044785 C47.28943963 105.74998895 47.30025852 107.84952302 47.31645775 109.94900894 C47.33825505 112.89121028 47.3412335 115.8328773 47.33984375 118.77514648 C47.35062958 119.64189499 47.36141541 120.50864349 47.37252808 121.4016571 C47.34693901 126.41270809 46.77609815 129.83432494 43.99926758 134.17700195 C38.82403157 138.96409526 34.63404373 139.5459518 27.79223633 139.4465332 C23.38754776 139.02146536 21.45782756 138.00031622 17.99926758 135.17700195 C14.08010559 129.56326852 13.43199109 124.33076537 13.54516602 117.63989258 C13.54458191 116.72188873 13.5439978 115.80388489 13.543396 114.85806274 C13.54616383 111.84939636 13.57719408 108.84174344 13.60864258 105.83325195 C13.61610959 103.73718812 13.62180035 101.64111727 13.62579346 99.54504395 C13.64101343 94.04744958 13.68026402 88.55028274 13.72460938 83.05285645 C13.76564056 77.43544293 13.78382122 71.81795986 13.80395508 66.20043945 C13.84676169 55.19243986 13.91496897 44.18475656 13.99926758 33.17700195 C12.70891602 33.21180664 11.41856445 33.24661133 10.08911133 33.2824707 C8.37167651 33.31062537 6.65422751 33.33792372 4.93676758 33.36450195 C3.66542969 33.40220703 3.66542969 33.40220703 2.3684082 33.44067383 C-3.22956244 33.50551519 -7.05331837 32.84886122 -12.00073242 30.17700195 C-15.31788844 26.85984593 -17.03029599 23.76451963 -18.00073242 19.17700195 C-18.00073242 13.8782044 -17.38846362 9.41166595 -14.00073242 5.17700195 C-9.04048971 0.82166689 -6.57740481 0.04954754 0 0 Z " fill="#000000" transform="translate(76.000732421875,164.822998046875)"/>
<path d="M0 0 C4.15539903 2.4547635 6.57520299 4.62534531 8.671875 9.05859375 C9.09756185 12.21786354 9.05107286 15.3470415 9.01245117 18.53051758 C9.01310829 19.95075729 9.01310829 19.95075729 9.01377869 21.39968872 C9.01169262 24.52187896 8.98836981 27.64352883 8.96484375 30.765625 C8.95924716 32.93323981 8.95497736 35.10085843 8.95198059 37.26847839 C8.94053686 42.96823641 8.9110735 48.66776439 8.87786865 54.36743164 C8.84715775 60.18567798 8.83347306 66.00396156 8.81835938 71.82226562 C8.78620354 83.23447596 8.73501269 94.64651571 8.671875 106.05859375 C9.64012207 106.03764648 10.60836914 106.01669922 11.60595703 105.99511719 C15.21762145 105.92240863 18.82922191 105.87668319 22.44140625 105.83886719 C24.00108744 105.81882153 25.56069413 105.79157718 27.12011719 105.75683594 C29.36932814 105.70800249 31.6175409 105.6855556 33.8671875 105.66796875 C34.90348801 105.63700104 34.90348801 105.63700104 35.96072388 105.60540771 C41.00219819 105.60310072 43.77259307 106.93887813 47.671875 110.05859375 C51.49454253 114.27670965 52.04417588 118.24711904 51.94921875 123.90234375 C51.29342991 129.00087107 49.14159869 132.73667909 45.35595703 136.14160156 C40.50625886 139.27562043 34.8383809 138.62896925 29.265625 138.58984375 C28.06756226 138.59367065 26.86949951 138.59749756 25.63513184 138.60144043 C23.10684365 138.60415751 20.57852725 138.59681074 18.05029297 138.58007812 C14.18523352 138.55866775 10.32203303 138.579889 6.45703125 138.60546875 C3.99739174 138.60282544 1.53775338 138.5977004 -0.921875 138.58984375 C-2.07514282 138.59794067 -3.22841064 138.6060376 -4.41662598 138.61437988 C-10.50129251 138.54343026 -14.69772551 138.4404793 -19.328125 134.05859375 C-24.12183723 128.57667804 -23.89870661 123.63003408 -23.84570312 116.54882812 C-23.8527124 115.39691483 -23.85972168 114.24500153 -23.86694336 113.05818176 C-23.88452758 109.2559895 -23.87289816 105.4545434 -23.859375 101.65234375 C-23.86206977 99.00728208 -23.86595206 96.36222137 -23.87097168 93.71716309 C-23.87823939 88.17578062 -23.86868365 82.63461172 -23.84960938 77.09326172 C-23.82784202 70.69584649 -23.83489404 64.29894125 -23.856915 57.90153837 C-23.87728598 51.73558535 -23.87508945 45.5698576 -23.86338806 39.40388489 C-23.86072019 36.78522164 -23.86399262 34.16654538 -23.87330627 31.54789734 C-23.88346752 27.8877009 -23.86797461 24.22848296 -23.84570312 20.56835938 C-23.85784851 18.94574944 -23.85784851 18.94574944 -23.87023926 17.2903595 C-23.80190012 11.22632906 -23.373522 7.67776584 -19.328125 3.05859375 C-13.99062526 -1.63193633 -6.61668001 -2.67553671 0 0 Z " fill="#000000" transform="translate(295.328125,165.94140625)"/>
</svg>
