<?xml version="1.0" encoding="UTF-8"?>
<svg version="1.1" xmlns="http://www.w3.org/2000/svg" width="800" height="801">
<path d="M0 0 C1.56270787 -0.00418388 3.12541271 -0.00966712 4.68811202 -0.01631981 C8.93879841 -0.03065528 13.18928895 -0.02656736 17.43998551 -0.019153 C22.04137332 -0.0143938 26.6427204 -0.02695542 31.24409485 -0.03717041 C40.24215509 -0.05431078 49.24014536 -0.05520825 58.23821768 -0.04995751 C65.55749807 -0.04590527 72.87675788 -0.04737184 80.19603729 -0.05270576 C81.76255303 -0.0538284 81.76255303 -0.0538284 83.36071555 -0.05497371 C85.48276665 -0.0565053 87.60481775 -0.05804364 89.72686884 -0.05958868 C109.59917886 -0.07329678 129.47144944 -0.06788818 149.34375855 -0.05640347 C167.49124799 -0.04647535 185.63863541 -0.05940751 203.78610912 -0.08333766 C222.45562121 -0.10776917 241.12508586 -0.11732643 259.7946136 -0.11068493 C270.26180027 -0.10720139 280.72890855 -0.10936731 291.19608307 -0.12693596 C300.10751828 -0.14170881 309.01881991 -0.14222741 317.93025264 -0.12486505 C322.46939162 -0.11639389 327.00829248 -0.11410944 331.54741859 -0.1295166 C362.16308706 -0.22606777 391.3307663 2.33145133 416.93572998 21.38768005 C416.93572998 22.04768005 416.93572998 22.70768005 416.93572998 23.38768005 C417.52869873 23.49910339 418.12166748 23.61052673 418.73260498 23.72532654 C422.572908 24.87988572 425.06194999 27.74673326 427.93572998 30.45018005 C428.59564941 31.06925232 429.25556885 31.68832458 429.93548584 32.32615662 C453.30437957 54.8705969 465.59783513 84.7109677 466.18741226 117.04332733 C466.19823452 119.74167395 466.19882971 122.43861318 466.18969727 125.13682556 C466.19200877 126.65303461 466.19518986 128.16924253 466.19915175 129.68544817 C466.20741383 133.80281759 466.20341412 137.92009295 466.19717932 142.03746247 C466.19262023 146.49697613 466.19965559 150.95647456 466.20513916 155.41598511 C466.21399818 164.13282133 466.21212678 172.84962296 466.20631388 181.56646049 C466.20178359 188.65547523 466.20119038 195.74448032 466.20336151 202.83349609 C466.20366798 203.84526626 466.20397444 204.85703643 466.2042902 205.89946631 C466.20492969 207.95532906 466.20557812 210.01119182 466.20623538 212.06705457 C466.21192845 231.31168087 466.20539687 250.55628808 466.19463465 269.80091125 C466.18570007 286.28736327 466.1872524 302.77378713 466.19647217 319.26023865 C466.20719291 338.43946213 466.21137922 357.6186689 466.20524764 376.79789495 C466.20461059 378.84588464 466.20398185 380.89387432 466.20336151 382.94186401 C466.20305296 383.94932128 466.20274441 384.95677856 466.20242651 385.99476483 C466.20070498 393.06922721 466.20360295 400.14367892 466.20832062 407.21813965 C466.21394953 415.84816744 466.21237091 424.47815888 466.20175913 433.10818255 C466.19652938 437.50512479 466.19439929 441.90200659 466.20105743 446.29894829 C466.20707536 450.33434473 466.20364691 454.36962545 466.19310233 458.40501159 C466.1908928 459.85433621 466.1919485 461.30367088 466.19685391 462.75298887 C466.23656525 475.47514571 465.66363121 488.47699362 461.62322998 500.63768005 C461.40884277 501.28897888 461.19445557 501.94027771 460.97357178 502.61131287 C458.46585024 510.07148776 455.52208806 517.37872455 451.93572998 524.38768005 C451.27572998 524.38768005 450.61572998 524.38768005 449.93572998 524.38768005 C449.78104248 525.47049255 449.78104248 525.47049255 449.62322998 526.57518005 C448.86779051 529.66561427 447.78041683 531.80511847 445.93572998 534.38768005 C445.27572998 534.38768005 444.61572998 534.38768005 443.93572998 534.38768005 C443.93572998 535.37768005 443.93572998 536.36768005 443.93572998 537.38768005 C443.27572998 537.38768005 442.61572998 537.38768005 441.93572998 537.38768005 C441.67018311 537.9703363 441.40463623 538.55299255 441.13104248 539.15330505 C439.03427092 543.0727604 435.93243493 546.13479556 432.93572998 549.38768005 C432.35951904 550.02963318 431.78330811 550.6715863 431.18963623 551.33299255 C427.06542157 555.7144163 422.55012647 559.31427284 417.68572998 562.82518005 C416.78165405 563.48139343 416.78165405 563.48139343 415.85931396 564.15086365 C412.97236444 566.18279328 410.4828968 567.90477368 406.93572998 568.38768005 C406.93572998 569.04768005 406.93572998 569.70768005 406.93572998 570.38768005 C388.63072107 580.30289321 369.07324434 585.0304736 348.35211182 584.89561462 C346.76960095 584.90023928 345.18709441 584.90660256 343.60459661 584.9145236 C339.31309284 584.93102564 335.02195065 584.92305915 330.73044658 584.91057873 C326.0800451 584.90145105 321.4297017 584.91553585 316.77931213 584.92649841 C307.69173739 584.9442066 298.60429542 584.94047817 289.51671565 584.92884785 C282.12550756 584.91978332 274.73433645 584.91860253 267.34312439 584.92294312 C266.28779687 584.92355605 265.23246934 584.92416898 264.14516219 584.92480049 C262.00072196 584.9260795 259.85628174 584.92737635 257.71184152 584.92869085 C237.64305364 584.94007409 217.57433906 584.92701844 197.5055632 584.90548939 C180.31704696 584.88762047 163.12863881 584.89072522 145.94012451 584.90916443 C125.9390245 584.93061109 105.93798859 584.93897567 85.93687868 584.92671537 C83.80069765 584.92544129 81.66451662 584.9241838 79.52833557 584.92294312 C77.95211812 584.92201746 77.95211812 584.92201746 76.34405789 584.92107311 C68.96893441 584.91763158 61.59385188 584.92342262 54.21873474 584.93286133 C45.22060048 584.94412497 36.22260565 584.94095001 27.22448719 584.91973835 C22.64090108 584.90928638 18.05754673 584.90500513 13.47396278 584.91833496 C9.26571648 584.9303874 5.05791342 584.92348853 0.84970647 584.90242475 C-0.66015559 584.8980124 -2.17005631 584.90010146 -3.67989284 584.9099279 C-18.27858799 584.99753798 -32.64191104 582.60171307 -46.00177002 576.51268005 C-46.78463379 576.17043396 -47.56749756 575.82818787 -48.37408447 575.47557068 C-54.4555635 572.77520542 -60.33886887 569.78432253 -66.06427002 566.38768005 C-66.06427002 565.72768005 -66.06427002 565.06768005 -66.06427002 564.38768005 C-66.90731689 564.24652771 -66.90731689 564.24652771 -67.76739502 564.1025238 C-70.62958833 563.21173915 -72.46197463 561.79896124 -74.81427002 559.95018005 C-76.01309814 559.02398865 -76.01309814 559.02398865 -77.23614502 558.0790863 C-77.83942627 557.52092224 -78.44270752 556.96275818 -79.06427002 556.38768005 C-79.06427002 555.72768005 -79.06427002 555.06768005 -79.06427002 554.38768005 C-79.66239502 554.11955505 -80.26052002 553.85143005 -80.87677002 553.57518005 C-83.06274856 552.38850599 -84.47759596 551.29168893 -86.06427002 549.38768005 C-86.06427002 548.72768005 -86.06427002 548.06768005 -86.06427002 547.38768005 C-87.05427002 547.05768005 -88.04427002 546.72768005 -89.06427002 546.38768005 C-89.06427002 545.72768005 -89.06427002 545.06768005 -89.06427002 544.38768005 C-89.72427002 544.38768005 -90.38427002 544.38768005 -91.06427002 544.38768005 C-92.29766846 543.01756287 -92.29766846 543.01756287 -93.67364502 541.09080505 C-94.17815186 540.38568787 -94.68265869 539.68057068 -95.20245361 538.9540863 C-96.00030273 537.80746521 -96.00030273 537.80746521 -96.81427002 536.63768005 C-97.62952148 535.46785583 -97.62952148 535.46785583 -98.46124268 534.2743988 C-114.09849145 511.47809738 -119.22381743 486.00590647 -119.20471191 458.70378113 C-119.20729933 457.21780167 -119.21031353 455.7318229 -119.21371531 454.24584508 C-119.22174482 450.17934887 -119.22357262 446.11287036 -119.22431278 442.04636717 C-119.2261705 437.65343985 -119.23372156 433.26052155 -119.240448 428.86759949 C-119.25400447 419.26785627 -119.26005225 409.66811725 -119.26445866 400.06836605 C-119.26722643 394.06611226 -119.27146482 388.06386007 -119.27596283 382.06160736 C-119.2881535 365.42098466 -119.29845223 348.78036324 -119.30183792 332.13973618 C-119.30205749 331.0755598 -119.30227705 330.01138342 -119.30250327 328.91495927 C-119.30272155 327.84832564 -119.30293983 326.78169202 -119.30316472 325.68273616 C-119.30360818 323.5215586 -119.30405474 321.36038105 -119.30450439 319.19920349 C-119.30472582 318.12719898 -119.30494725 317.05519446 -119.30517539 315.95070496 C-119.30911854 298.60282101 -119.32655871 281.25497919 -119.34986392 263.9071115 C-119.3736352 246.06721773 -119.38604245 228.22734505 -119.38720584 210.3874352 C-119.38811952 200.38288277 -119.3937938 190.37838519 -119.41202545 180.37384796 C-119.42750482 171.84992043 -119.43250116 163.32606471 -119.42428735 154.80212578 C-119.42040798 150.46128634 -119.42117578 146.12059114 -119.4353447 141.7797699 C-119.52492874 112.61332621 -118.15091724 86.48747268 -104.06427002 60.38768005 C-103.67755127 59.60264099 -103.29083252 58.81760193 -102.89239502 58.0087738 C-100.27502473 52.85938226 -96.90563024 48.37561232 -93.37677002 43.82518005 C-92.8885376 43.19225037 -92.40030518 42.55932068 -91.89727783 41.9072113 C-90.6694263 40.35982867 -89.37204072 38.86813545 -88.06427002 37.38768005 C-87.40427002 37.38768005 -86.74427002 37.38768005 -86.06427002 37.38768005 C-85.84512939 36.8256488 -85.62598877 36.26361755 -85.40020752 35.68455505 C-77.44760639 22.01166188 -55.83908324 11.70760796 -41.43927002 6.76268005 C-40.65165283 6.47650818 -39.86403564 6.1903363 -39.05255127 5.89549255 C-26.14114368 1.39389244 -13.59146718 -0.06015799 0 0 Z " fill="#FEFEFE" transform="translate(241.06427001953125,101.61231994628906)"/>
<path d="M0 0 C1.56270787 -0.00418388 3.12541271 -0.00966712 4.68811202 -0.01631981 C8.93879841 -0.03065528 13.18928895 -0.02656736 17.43998551 -0.019153 C22.04137332 -0.0143938 26.6427204 -0.02695542 31.24409485 -0.03717041 C40.24215509 -0.05431078 49.24014536 -0.05520825 58.23821768 -0.04995751 C65.55749807 -0.04590527 72.87675788 -0.04737184 80.19603729 -0.05270576 C81.76255303 -0.0538284 81.76255303 -0.0538284 83.36071555 -0.05497371 C85.48276665 -0.0565053 87.60481775 -0.05804364 89.72686884 -0.05958868 C109.59917886 -0.07329678 129.47144944 -0.06788818 149.34375855 -0.05640347 C167.49124799 -0.04647535 185.63863541 -0.05940751 203.78610912 -0.08333766 C222.45562121 -0.10776917 241.12508586 -0.11732643 259.7946136 -0.11068493 C270.26180027 -0.10720139 280.72890855 -0.10936731 291.19608307 -0.12693596 C300.10751828 -0.14170881 309.01881991 -0.14222741 317.93025264 -0.12486505 C322.46939162 -0.11639389 327.00829248 -0.11410944 331.54741859 -0.1295166 C362.16308706 -0.22606777 391.3307663 2.33145133 416.93572998 21.38768005 C416.93572998 22.04768005 416.93572998 22.70768005 416.93572998 23.38768005 C417.52869873 23.49910339 418.12166748 23.61052673 418.73260498 23.72532654 C422.572908 24.87988572 425.06194999 27.74673326 427.93572998 30.45018005 C428.59564941 31.06925232 429.25556885 31.68832458 429.93548584 32.32615662 C453.30437957 54.8705969 465.59783513 84.7109677 466.18741226 117.04332733 C466.19823452 119.74167395 466.19882971 122.43861318 466.18969727 125.13682556 C466.19200877 126.65303461 466.19518986 128.16924253 466.19915175 129.68544817 C466.20741383 133.80281759 466.20341412 137.92009295 466.19717932 142.03746247 C466.19262023 146.49697613 466.19965559 150.95647456 466.20513916 155.41598511 C466.21399818 164.13282133 466.21212678 172.84962296 466.20631388 181.56646049 C466.20178359 188.65547523 466.20119038 195.74448032 466.20336151 202.83349609 C466.20366798 203.84526626 466.20397444 204.85703643 466.2042902 205.89946631 C466.20492969 207.95532906 466.20557812 210.01119182 466.20623538 212.06705457 C466.21192845 231.31168087 466.20539687 250.55628808 466.19463465 269.80091125 C466.18570007 286.28736327 466.1872524 302.77378713 466.19647217 319.26023865 C466.20719291 338.43946213 466.21137922 357.6186689 466.20524764 376.79789495 C466.20461059 378.84588464 466.20398185 380.89387432 466.20336151 382.94186401 C466.20305296 383.94932128 466.20274441 384.95677856 466.20242651 385.99476483 C466.20070498 393.06922721 466.20360295 400.14367892 466.20832062 407.21813965 C466.21394953 415.84816744 466.21237091 424.47815888 466.20175913 433.10818255 C466.19652938 437.50512479 466.19439929 441.90200659 466.20105743 446.29894829 C466.20707536 450.33434473 466.20364691 454.36962545 466.19310233 458.40501159 C466.1908928 459.85433621 466.1919485 461.30367088 466.19685391 462.75298887 C466.23656525 475.47514571 465.66363121 488.47699362 461.62322998 500.63768005 C461.40884277 501.28897888 461.19445557 501.94027771 460.97357178 502.61131287 C458.46585024 510.07148776 455.52208806 517.37872455 451.93572998 524.38768005 C451.27572998 524.38768005 450.61572998 524.38768005 449.93572998 524.38768005 C449.78104248 525.47049255 449.78104248 525.47049255 449.62322998 526.57518005 C448.86779051 529.66561427 447.78041683 531.80511847 445.93572998 534.38768005 C445.27572998 534.38768005 444.61572998 534.38768005 443.93572998 534.38768005 C443.93572998 535.37768005 443.93572998 536.36768005 443.93572998 537.38768005 C443.27572998 537.38768005 442.61572998 537.38768005 441.93572998 537.38768005 C441.67018311 537.9703363 441.40463623 538.55299255 441.13104248 539.15330505 C439.03427092 543.0727604 435.93243493 546.13479556 432.93572998 549.38768005 C432.35951904 550.02963318 431.78330811 550.6715863 431.18963623 551.33299255 C427.06542157 555.7144163 422.55012647 559.31427284 417.68572998 562.82518005 C416.78165405 563.48139343 416.78165405 563.48139343 415.85931396 564.15086365 C412.97236444 566.18279328 410.4828968 567.90477368 406.93572998 568.38768005 C406.93572998 569.04768005 406.93572998 569.70768005 406.93572998 570.38768005 C388.63072107 580.30289321 369.07324434 585.0304736 348.35211182 584.89561462 C346.76960095 584.90023928 345.18709441 584.90660256 343.60459661 584.9145236 C339.31309284 584.93102564 335.02195065 584.92305915 330.73044658 584.91057873 C326.0800451 584.90145105 321.4297017 584.91553585 316.77931213 584.92649841 C307.69173739 584.9442066 298.60429542 584.94047817 289.51671565 584.92884785 C282.12550756 584.91978332 274.73433645 584.91860253 267.34312439 584.92294312 C266.28779687 584.92355605 265.23246934 584.92416898 264.14516219 584.92480049 C262.00072196 584.9260795 259.85628174 584.92737635 257.71184152 584.92869085 C237.64305364 584.94007409 217.57433906 584.92701844 197.5055632 584.90548939 C180.31704696 584.88762047 163.12863881 584.89072522 145.94012451 584.90916443 C125.9390245 584.93061109 105.93798859 584.93897567 85.93687868 584.92671537 C83.80069765 584.92544129 81.66451662 584.9241838 79.52833557 584.92294312 C77.95211812 584.92201746 77.95211812 584.92201746 76.34405789 584.92107311 C68.96893441 584.91763158 61.59385188 584.92342262 54.21873474 584.93286133 C45.22060048 584.94412497 36.22260565 584.94095001 27.22448719 584.91973835 C22.64090108 584.90928638 18.05754673 584.90500513 13.47396278 584.91833496 C9.26571648 584.9303874 5.05791342 584.92348853 0.84970647 584.90242475 C-0.66015559 584.8980124 -2.17005631 584.90010146 -3.67989284 584.9099279 C-18.27858799 584.99753798 -32.64191104 582.60171307 -46.00177002 576.51268005 C-46.78463379 576.17043396 -47.56749756 575.82818787 -48.37408447 575.47557068 C-54.4555635 572.77520542 -60.33886887 569.78432253 -66.06427002 566.38768005 C-66.06427002 565.72768005 -66.06427002 565.06768005 -66.06427002 564.38768005 C-66.90731689 564.24652771 -66.90731689 564.24652771 -67.76739502 564.1025238 C-70.62958833 563.21173915 -72.46197463 561.79896124 -74.81427002 559.95018005 C-76.01309814 559.02398865 -76.01309814 559.02398865 -77.23614502 558.0790863 C-77.83942627 557.52092224 -78.44270752 556.96275818 -79.06427002 556.38768005 C-79.06427002 555.72768005 -79.06427002 555.06768005 -79.06427002 554.38768005 C-79.66239502 554.11955505 -80.26052002 553.85143005 -80.87677002 553.57518005 C-83.06274856 552.38850599 -84.47759596 551.29168893 -86.06427002 549.38768005 C-86.06427002 548.72768005 -86.06427002 548.06768005 -86.06427002 547.38768005 C-87.05427002 547.05768005 -88.04427002 546.72768005 -89.06427002 546.38768005 C-89.06427002 545.72768005 -89.06427002 545.06768005 -89.06427002 544.38768005 C-89.72427002 544.38768005 -90.38427002 544.38768005 -91.06427002 544.38768005 C-92.29766846 543.01756287 -92.29766846 543.01756287 -93.67364502 541.09080505 C-94.17815186 540.38568787 -94.68265869 539.68057068 -95.20245361 538.9540863 C-96.00030273 537.80746521 -96.00030273 537.80746521 -96.81427002 536.63768005 C-97.62952148 535.46785583 -97.62952148 535.46785583 -98.46124268 534.2743988 C-114.09849145 511.47809738 -119.22381743 486.00590647 -119.20471191 458.70378113 C-119.20729933 457.21780167 -119.21031353 455.7318229 -119.21371531 454.24584508 C-119.22174482 450.17934887 -119.22357262 446.11287036 -119.22431278 442.04636717 C-119.2261705 437.65343985 -119.23372156 433.26052155 -119.240448 428.86759949 C-119.25400447 419.26785627 -119.26005225 409.66811725 -119.26445866 400.06836605 C-119.26722643 394.06611226 -119.27146482 388.06386007 -119.27596283 382.06160736 C-119.2881535 365.42098466 -119.29845223 348.78036324 -119.30183792 332.13973618 C-119.30205749 331.0755598 -119.30227705 330.01138342 -119.30250327 328.91495927 C-119.30272155 327.84832564 -119.30293983 326.78169202 -119.30316472 325.68273616 C-119.30360818 323.5215586 -119.30405474 321.36038105 -119.30450439 319.19920349 C-119.30472582 318.12719898 -119.30494725 317.05519446 -119.30517539 315.95070496 C-119.30911854 298.60282101 -119.32655871 281.25497919 -119.34986392 263.9071115 C-119.3736352 246.06721773 -119.38604245 228.22734505 -119.38720584 210.3874352 C-119.38811952 200.38288277 -119.3937938 190.37838519 -119.41202545 180.37384796 C-119.42750482 171.84992043 -119.43250116 163.32606471 -119.42428735 154.80212578 C-119.42040798 150.46128634 -119.42117578 146.12059114 -119.4353447 141.7797699 C-119.52492874 112.61332621 -118.15091724 86.48747268 -104.06427002 60.38768005 C-103.67755127 59.60264099 -103.29083252 58.81760193 -102.89239502 58.0087738 C-100.27502473 52.85938226 -96.90563024 48.37561232 -93.37677002 43.82518005 C-92.8885376 43.19225037 -92.40030518 42.55932068 -91.89727783 41.9072113 C-90.6694263 40.35982867 -89.37204072 38.86813545 -88.06427002 37.38768005 C-87.40427002 37.38768005 -86.74427002 37.38768005 -86.06427002 37.38768005 C-85.84512939 36.8256488 -85.62598877 36.26361755 -85.40020752 35.68455505 C-77.44760639 22.01166188 -55.83908324 11.70760796 -41.43927002 6.76268005 C-40.65165283 6.47650818 -39.86403564 6.1903363 -39.05255127 5.89549255 C-26.14114368 1.39389244 -13.59146718 -0.06015799 0 0 Z M-59.02911377 74.80955505 C-62.15837074 78.77368096 -64.66549978 82.95291655 -67.06427002 87.38768005 C-67.42005127 87.98451599 -67.77583252 88.58135193 -68.14239502 89.1962738 C-75.88954894 102.99973456 -76.79585747 117.82619426 -76.69537354 133.24925232 C-76.7005251 135.28489299 -76.70781562 137.32052918 -76.71705627 139.3561554 C-76.73541971 144.83349232 -76.72272801 150.31033645 -76.70296597 155.78765225 C-76.68645505 161.54967295 -76.69540944 167.31166546 -76.70048523 173.07369995 C-76.704992 182.74443844 -76.68922351 192.41498261 -76.66119385 202.0856781 C-76.6291395 213.23014531 -76.62916601 224.37426246 -76.64640862 235.51875454 C-76.66232927 246.28773374 -76.65550517 257.0565859 -76.6384716 267.82555962 C-76.63163983 272.38696152 -76.63259343 276.9482604 -76.64001656 281.50966072 C-76.64773646 286.8902749 -76.63536877 292.27049561 -76.60816765 297.65104294 C-76.60134251 299.6132573 -76.60112185 301.57550884 -76.60838318 303.53772163 C-76.69046629 328.62956259 -70.15647806 351.02618649 -52.24786377 369.3368988 C-38.95587639 382.37648091 -21.38481248 391.52639403 -2.44540405 391.50793457 C-1.35173019 391.50930923 -0.25805634 391.5106839 0.86875916 391.51210022 C2.05343277 391.50850494 3.23810638 391.50490967 4.4586792 391.50120544 C5.71776596 391.50135147 6.97685272 391.5014975 8.27409363 391.50164795 C11.71372567 391.50193404 15.15332262 391.49606775 18.59294653 391.48907399 C22.19240483 391.48280911 25.79186399 391.48223418 29.3913269 391.48104858 C36.20162533 391.4779445 43.01190764 391.46974357 49.82219899 391.45969909 C57.57793198 391.44850928 65.33366576 391.44302028 73.08940482 391.43800366 C89.0381892 391.42756017 104.98695751 391.40997863 120.93572998 391.38768005 C121.23945023 392.16528183 121.54317047 392.94288361 121.85609436 393.74404907 C122.92930615 396.37195046 124.18491264 398.64497929 125.66619873 401.0634613 C126.21437256 401.9618573 126.76254639 402.8602533 127.32733154 403.78587341 C127.91997803 404.7475946 128.51262451 405.7093158 129.12322998 406.70018005 C129.74036865 407.70766296 130.35750732 408.71514587 130.99334717 409.75315857 C136.75506466 419.13953336 142.58515977 428.48327471 148.44354248 437.80955505 C150.62642352 441.28647935 152.7904608 444.7732813 154.92791748 448.27830505 C155.37812256 449.01250671 155.82832764 449.74670837 156.29217529 450.50315857 C157.10188297 451.82571227 157.90646384 453.15142776 158.70428467 454.48118591 C161.36318094 458.80698717 164.29681376 463.06822194 168.93572998 465.38768005 C170.94128499 465.6617539 170.94128499 465.6617539 173.18572998 465.70018005 C173.93338623 465.73756287 174.68104248 465.77494568 175.45135498 465.8134613 C180.03025502 465.02871271 183.05658171 462.49670542 185.89276123 458.91893005 C186.50506592 457.91861755 187.11737061 456.91830505 187.74822998 455.88768005 C188.10948975 455.30510437 188.47074951 454.72252869 188.84295654 454.12229919 C190.22212036 451.88625683 191.5784812 449.63709427 192.93572998 447.38768005 C194.23598639 445.25064188 195.53681474 443.11395164 196.83807373 440.9775238 C199.40184132 436.76428615 201.95995411 432.54767279 204.51339722 428.32817078 C208.72536134 421.36917246 212.96766751 414.42977586 217.24822998 407.51268005 C218.02891846 406.24895569 218.02891846 406.24895569 218.82537842 404.95970154 C219.31167725 404.17538757 219.79797607 403.39107361 220.29901123 402.58299255 C220.92223267 401.5777655 220.92223267 401.5777655 221.55804443 400.55223083 C222.01268066 399.83792908 222.46731689 399.12362732 222.93572998 398.38768005 C223.37133743 397.36766907 223.80694489 396.34765808 224.25575256 395.29673767 C227.34200727 391.94667483 227.94762392 391.92546543 232.29580688 391.65510559 C234.59478714 391.63210248 236.89423746 391.64241667 239.1930542 391.6782074 C241.07677483 391.67190056 241.07677483 391.67190056 242.99855042 391.66546631 C245.72984426 391.65644701 248.46020262 391.66618067 251.19140244 391.69036484 C255.52240689 391.72828135 259.8526931 391.72258923 264.18380737 391.71083069 C272.61159428 391.69397634 281.03894949 391.72204139 289.46666718 391.75424957 C300.15707144 391.79269788 310.84739716 391.80871365 321.53785527 391.78904498 C325.82942545 391.78256681 330.12026575 391.79657748 334.4117229 391.82749534 C336.44983463 391.83926247 338.48772131 391.84180176 340.52586365 391.84048462 C342.99223136 391.83912892 345.45867117 391.85165569 347.92485046 391.88217163 C359.48439188 391.82786278 370.41223228 388.87061367 380.56072998 383.32518005 C381.27092285 382.94232849 381.98111572 382.55947693 382.71282959 382.1650238 C389.76380734 378.19452398 395.3596687 373.19994363 400.93572998 367.38768005 C401.69498779 366.61295349 402.45424561 365.83822693 403.23651123 365.0400238 C410.10256563 357.70847419 414.59372316 349.76894116 418.18572998 340.45018005 C418.43210205 339.81845886 418.67847412 339.18673767 418.93231201 338.53587341 C423.39721874 326.36769118 423.22863945 314.1339278 423.21038818 301.3591156 C423.2147413 299.34082349 423.21992644 297.32253303 423.22587585 295.304245 C423.23921316 289.84750005 423.23985036 284.39082459 423.23731256 278.93406653 C423.23623918 274.36679527 423.24113562 269.79953786 423.24591798 265.23226959 C423.25699514 254.45048496 423.25746078 243.66873518 423.25140381 232.88694763 C423.24536612 221.79147592 423.25767401 210.69613108 423.27897388 199.60068101 C423.29662993 190.04956816 423.30258489 180.49849556 423.29933614 170.94736701 C423.29752938 165.25395588 423.30009845 159.56063525 423.31405067 153.867239 C423.32668954 148.50977922 423.32462789 143.1525162 423.31163979 137.7950592 C423.30928754 135.83844751 423.3119597 133.8818217 423.32026291 131.92522621 C423.41786018 107.12216738 417.72790742 86.73674571 400.24822998 68.13768005 C390.84927548 59.18975898 380.20294237 53.48212413 367.93572998 49.38768005 C366.66535889 48.92748474 366.66535889 48.92748474 365.36932373 48.45799255 C358.83622128 46.13658559 352.52316308 45.26436884 345.57492161 45.25625229 C344.33424602 45.25241114 343.09357043 45.24857 341.81529862 45.24461246 C340.45167953 45.24539255 339.0880605 45.24627131 337.72444153 45.24723816 C336.2654983 45.24465216 334.80655578 45.24163835 333.34761423 45.23823476 C329.34675722 45.2301888 325.34591817 45.22837653 321.34505403 45.22763729 C317.02648908 45.22578249 312.70793337 45.21823293 308.38937378 45.21150208 C298.9489337 45.19793441 289.50849788 45.19189622 280.06804967 45.18749142 C274.1686966 45.18472584 268.26934517 45.18048786 262.36999321 45.17598724 C246.02367919 45.16379567 229.67736648 45.15349675 213.33104801 45.15011215 C212.28531686 45.14989259 211.2395857 45.14967302 210.16216573 45.1494468 C209.11398324 45.14922852 208.06580075 45.14901024 206.98585516 45.14878535 C204.86196903 45.14834189 202.7380829 45.14789533 200.61419678 45.14744568 C199.56068401 45.14722425 198.50717124 45.14700282 197.42173385 45.14677468 C180.36457156 45.14282965 163.30745208 45.12538414 146.25030632 45.10208616 C128.72125339 45.07833773 111.1922219 45.06590868 93.66315264 45.06474423 C83.82808026 45.06382933 73.99306363 45.0581239 64.15800667 45.03992462 C55.78027856 45.02447633 47.40262341 45.01943089 39.02488375 45.02766272 C34.75556117 45.0315528 30.48638532 45.03072065 26.21708107 45.01660538 C22.29785906 45.0037669 18.37889252 45.00514997 14.45967036 45.01719609 C13.05246851 45.01913606 11.64524793 45.01615474 10.23807228 45.00735173 C-17.03118065 44.8477562 -40.91290575 53.97751338 -59.02911377 74.80955505 Z " fill="#2CB24A" transform="translate(241.06427001953125,101.61231994628906)"/>
<path d="M0 0 C3.62013473 2.55763473 3.62013473 2.55763473 4.9375 3.875 C5.2675 1.565 5.5975 -0.745 5.9375 -3.125 C15.8375 -3.125 25.7375 -3.125 35.9375 -3.125 C36.07366619 9.24587248 36.18348255 21.61623804 36.24837303 33.98769379 C36.27953501 39.73378089 36.32172853 45.4793237 36.39013672 51.22509766 C36.45587233 56.78188845 36.49131948 62.33815949 36.50676346 67.89530945 C36.51775328 70.00339426 36.53921081 72.11145428 36.57188034 74.21931458 C36.80630674 89.98806998 35.56305805 104.56572474 24.796875 117.046875 C15.11515716 126.56587489 3.45659561 131.98106081 -10.18603516 132.15844727 C-13.81247383 132.11333903 -17.43747029 131.98568793 -21.0625 131.875 C-21.0625 122.635 -21.0625 113.395 -21.0625 103.875 C-14.6275 103.38 -14.6275 103.38 -8.0625 102.875 C-2.41603491 101.0712681 -0.01990628 99.49295587 2.9375 94.375 C5.51563308 88.5979125 5.41816119 83.09155135 4.9375 76.875 C4.380625 77.27332031 3.82375 77.67164063 3.25 78.08203125 C2.486875 78.61183594 1.72375 79.14164062 0.9375 79.6875 C0.195 80.20957031 -0.5475 80.73164063 -1.3125 81.26953125 C-7.98359788 85.16416368 -13.81531587 86.3616419 -21.5 86.25 C-22.29470703 86.26160156 -23.08941406 86.27320313 -23.90820312 86.28515625 C-33.53266264 86.23816947 -41.68903778 83.04875813 -49.0625 76.875 C-54.51624407 71.25990255 -57.59791214 65.23453319 -60.0625 57.875 C-60.3615625 57.09511719 -60.660625 56.31523437 -60.96875 55.51171875 C-65.32896881 43.17795165 -64.01960967 27.84444858 -58.7734375 15.953125 C-52.28558128 4.50396696 -43.6536238 -0.68855048 -31.625 -5.5 C-20.16111921 -7.51120716 -9.79190351 -6.41485332 0 0 Z " fill="#F3772A" transform="translate(574.0625,291.125)"/>
<path d="M0 0 C9.9 0 19.8 0 30 0 C30 15.51 30 31.02 30 47 C30.66 47 31.32 47 32 47 C32 46.34 32 45.68 32 45 C41.93042197 37.55736642 51.70040257 34.90769998 64 36 C74.69556247 37.94327825 83.16308626 43.63397007 90 52 C92.0389205 55.20710837 93.55404999 58.49061242 95 62 C95.39316406 62.85851562 95.78632813 63.71703125 96.19140625 64.6015625 C100.56171834 75.41313597 101.27950297 90.72337066 97.1015625 101.7734375 C90.91715437 114.27383691 82.58644671 122.975534 69.44140625 127.97265625 C59.87867529 130.95667244 50.72647664 131.68823632 41.5 127.375 C36.91324746 124.82680415 33.90185624 122.35278435 31 118 C30.67 120.64 30.34 123.28 30 126 C20.1 126 10.2 126 0 126 C0 84.42 0 42.84 0 0 Z " fill="#F37528" transform="translate(220,249)"/>
<path d="M0 0 C8.75493972 8.17698526 13.57650055 19.81860607 14.42578125 31.625 C14.70314661 45.40567872 11.78300075 57.13843571 2.1875 67.46484375 C-9.66383151 78.82942414 -26.90981378 82.9974272 -43.00537109 82.92773438 C-55.22509411 82.41032981 -67.3710922 77.74276349 -76.0703125 69.05859375 C-86.97160764 55.5802142 -89.15495228 41.16448276 -87.8125 24.3125 C-86.99626529 20.28729683 -85.73860168 16.92995972 -83.8125 13.3125 C-83.4 12.52746094 -82.9875 11.74242187 -82.5625 10.93359375 C-75.67803007 -0.62527479 -63.50997248 -7.22455296 -50.8125 -10.6875 C-32.79723117 -13.65369438 -14.78482145 -11.39320317 0 0 Z " fill="#F37629" transform="translate(481.8125,296.6875)"/>
<path d="M0 0 C12.96516064 0 20.09793226 1.8168438 29.9296875 9.921875 C43.47111732 23.51440456 43.13272265 40.58160464 43.11329651 58.47161865 C43.10819223 60.30920441 43.10297628 62.14678986 43.09765625 63.984375 C43.09578749 65.89536502 43.09436575 67.80635552 43.09336853 69.71734619 C43.08957941 74.70834717 43.07978056 79.6993183 43.06866455 84.69030762 C43.05837227 89.79874264 43.05385428 94.90718256 43.04882812 100.015625 C43.0381545 110.01043178 43.02058757 120.00520872 43 130 C33.43 130 23.86 130 14 130 C13.9906543 127.51299561 13.98130859 125.02599121 13.97167969 122.46362305 C13.93779484 114.21333821 13.88218235 105.96330047 13.81609726 97.71321392 C13.77671872 92.71496525 13.74448322 87.71689022 13.72900391 82.71850586 C13.71377371 77.88775289 13.67921615 73.05747761 13.63169098 68.22693825 C13.61694251 66.39116397 13.60896277 64.55532147 13.60811615 62.71948814 C13.92467757 46.79810386 13.92467757 46.79810386 7.17425537 32.84159851 C4.75605424 30.59628184 4.75605424 30.59628184 0 29 C0 19.43 0 9.86 0 0 Z " fill="#F37628" transform="translate(329,246)"/>
<path d="M0 0 C5.93672444 2.30024211 9.95393291 6.39148167 13.07421875 11.89453125 C15.07041259 16.43439825 14.64488767 20.97835214 13.16015625 25.6328125 C10.41493418 31.82573771 7.17650712 35.22186395 1 38 C-3.76807106 39.58935702 -8.50454026 40.05509789 -13.2265625 38.05859375 C-18.62616204 34.83299028 -22.53831925 30.8556576 -25 25 C-25.71465433 18.85582901 -25.73363375 13.13374641 -22 8 C-14.82152546 0.93896471 -10.22563733 -1.14045329 0 0 Z " fill="#FEFBFA" transform="translate(275,313)"/>
<path d="M0 0 C5.28763623 3.08861927 9.7214355 7.172119 11.69140625 13.08203125 C12.42375777 19.5581111 12.30556496 24.91825464 8.36328125 30.2890625 C3.89148105 35.08475477 -0.6700039 38.39775018 -7.37109375 38.70703125 C-13.34093069 38.28127544 -17.96213188 36.57674452 -22.1015625 32.17578125 C-26.50025741 26.5755426 -27.85487215 21.87031412 -27.78125 14.75 C-26.779074 9.0930892 -22.84159091 5.32485212 -18.671875 1.6328125 C-13.25431506 -2.10569738 -6.03958446 -2.40152682 0 0 Z " fill="#FEFBFA" transform="translate(569.30859375,313.91796875)"/>
<path d="M0 0 C5.69333405 3.55481649 9.23051842 7.43374275 11.37109375 13.85546875 C12.42730137 20.39326023 10.96677422 25.12858202 7.3359375 30.61328125 C2.98927677 35.57348654 -2.71179863 38.02850967 -9.25390625 38.48046875 C-15.48158926 38.09468308 -19.87892364 34.74360788 -24.00390625 30.29296875 C-28.05834887 24.21130482 -28.51514246 19.12260568 -27.62890625 11.85546875 C-25.71396565 6.41347476 -22.01802779 2.48721424 -16.99609375 -0.2890625 C-11.34532339 -2.33117258 -5.53112125 -2.4080513 0 0 Z " fill="#FEFCFA" transform="translate(452.62890625,314.14453125)"/>
<path d="M0 0 C0.66 0.33 1.32 0.66 2 1 C-1.63 4.63 -5.26 8.26 -9 12 C-9.66 11.67 -10.32 11.34 -11 11 C-9.92173635 9.72486237 -8.83714481 8.45507431 -7.75 7.1875 C-7.14671875 6.47980469 -6.5434375 5.77210938 -5.921875 5.04296875 C-4.07629602 3.08110329 -2.20054668 1.54330375 0 0 Z " fill="#F48946" transform="translate(411,295)"/>
</svg>
