<?xml version="1.0" encoding="UTF-8"?>
<svg version="1.1" xmlns="http://www.w3.org/2000/svg" width="300" height="300">
<path d="M0 0 C1.77228218 -0.01073296 1.77228218 -0.01073296 3.58036804 -0.02168274 C4.87336823 -0.02437164 6.16636841 -0.02706055 7.49855042 -0.02983093 C8.87704641 -0.0360992 10.25554072 -0.04274632 11.6340332 -0.04974365 C16.1599053 -0.07075526 20.6857776 -0.081148 25.21168518 -0.09111023 C26.77403849 -0.09515982 28.33639163 -0.0992768 29.89874458 -0.10346031 C37.2451795 -0.12251099 44.59160441 -0.13673845 51.93805927 -0.14507228 C60.3932735 -0.15482404 68.84822451 -0.18108985 77.3033461 -0.22157317 C83.8530471 -0.25184651 90.40267316 -0.266552 96.95244271 -0.26985329 C100.85692765 -0.27219235 104.76113139 -0.28100107 108.6655407 -0.30631447 C112.34694933 -0.32979552 116.02789567 -0.33374929 119.70936012 -0.32355309 C121.68329998 -0.32283071 123.65721741 -0.34178327 125.63105774 -0.36161804 C137.35022061 -0.29419263 149.24683725 2.03589463 158.21559143 10.14717102 C158.21559143 10.80717102 158.21559143 11.46717102 158.21559143 12.14717102 C158.87559143 12.14717102 159.53559143 12.14717102 160.21559143 12.14717102 C160.21559143 12.80717102 160.21559143 13.46717102 160.21559143 14.14717102 C160.87559143 14.14717102 161.53559143 14.14717102 162.21559143 14.14717102 C163.80152893 16.13154602 163.80152893 16.13154602 165.59059143 18.89717102 C166.17582581 19.77888977 166.76106018 20.66060852 167.36402893 21.56904602 C172.63871404 31.00440488 173.80740267 40.46528571 173.76490784 51.10713196 C173.77362745 52.46224578 173.78400209 53.81734979 173.79588318 55.17243958 C173.82241893 58.8174285 173.82384802 62.46199963 173.81875658 66.10706615 C173.81659969 69.16811763 173.82642837 72.22908753 173.83596742 75.29012132 C173.8580748 82.52280814 173.85908061 89.75528717 173.84693909 96.98799133 C173.83487501 104.40678618 173.85945977 111.82482092 173.90207922 119.24348617 C173.93751148 125.65076776 173.94928251 132.05780965 173.94280374 138.4651854 C173.9392082 142.27528234 173.94414153 146.0848374 173.97223282 149.89484406 C174.2213681 186.80741916 174.2213681 186.80741916 162.21559143 200.14717102 C161.55559143 200.14717102 160.89559143 200.14717102 160.21559143 200.14717102 C160.21559143 200.80717102 160.21559143 201.46717102 160.21559143 202.14717102 C159.55559143 202.14717102 158.89559143 202.14717102 158.21559143 202.14717102 C158.21559143 202.80717102 158.21559143 203.46717102 158.21559143 204.14717102 C156.16090393 205.76826477 156.16090393 205.76826477 153.34059143 207.58467102 C152.43566956 208.18150696 151.53074768 208.7783429 150.59840393 209.39326477 C141.57669393 214.07080264 133.06149552 214.58244698 123.02027893 214.53535461 C121.61632379 214.53942821 120.21237186 214.54477448 118.8084259 214.55128479 C115.02326222 214.5648707 111.23834598 214.55969619 107.45317841 214.55014753 C103.47537614 214.54250536 99.49759382 214.54960912 95.51979065 214.55430603 C88.8421807 214.55975039 82.16467057 214.55260675 75.48707581 214.5382843 C67.78780809 214.5219603 60.08877878 214.52724975 52.38951683 214.54376352 C45.75649678 214.55741614 39.12354814 214.55927966 32.49051857 214.55144751 C28.53879011 214.54679167 24.58717337 214.54608816 20.63545227 214.55605698 C16.91870316 214.56477961 13.20225879 214.55860918 9.4855423 214.54137421 C7.48607797 214.53557273 5.4865876 214.54437948 3.48713684 214.55375671 C-6.38020271 214.48482435 -14.56371273 213.08902597 -22.90940857 207.58467102 C-23.84011169 206.98525696 -24.77081482 206.3858429 -25.72972107 205.76826477 C-26.40776794 205.23330383 -27.08581482 204.6983429 -27.78440857 204.14717102 C-27.78440857 203.48717102 -27.78440857 202.82717102 -27.78440857 202.14717102 C-28.44440857 202.14717102 -29.10440857 202.14717102 -29.78440857 202.14717102 C-29.78440857 201.48717102 -29.78440857 200.82717102 -29.78440857 200.14717102 C-30.44440857 200.14717102 -31.10440857 200.14717102 -31.78440857 200.14717102 C-33.18675232 198.45967102 -33.18675232 198.45967102 -34.72190857 196.14717102 C-35.47794373 195.03342102 -35.47794373 195.03342102 -36.24925232 193.89717102 C-40.98353803 185.41641494 -41.2368114 178.07423682 -41.23606873 168.50801086 C-41.24669704 167.0320193 -41.25852992 165.55603599 -41.27146912 164.08006287 C-41.30212116 160.08796383 -41.31337729 156.09604406 -41.31911135 152.1038394 C-41.32347985 149.60308165 -41.33186533 147.10236957 -41.34160995 144.60162735 C-41.37531691 135.85815832 -41.39248606 127.11482374 -41.39524841 118.37129211 C-41.39827859 110.25268715 -41.43867637 102.1348461 -41.49639666 94.01646268 C-41.54435678 87.02163149 -41.56498067 80.02705084 -41.56503904 73.03205645 C-41.56557425 68.86528146 -41.57688946 64.69925497 -41.61621475 60.53264999 C-41.65238894 56.60711736 -41.65418113 52.6829676 -41.63104248 48.75735092 C-41.62821023 47.32802065 -41.63701334 45.89860481 -41.65922165 44.46944427 C-41.8466877 31.59243766 -38.22313493 21.96815732 -29.78440857 12.14717102 C-21.25173798 4.94679461 -11.25354505 0.0468464 0 0 Z " fill="#FCFDFC" transform="translate(83.78440856933594,41.85282897949219)"/>
<path d="M0 0 C11.92804962 9.32258097 20.64662398 22.72182827 23.28027344 37.75976562 C24.74136798 50.56077389 23.54050219 61.98617883 18.28027344 73.75976562 C17.90773438 74.59507812 17.53519531 75.43039063 17.15136719 76.29101562 C13.16784343 84.17478391 6.96261558 90.64541174 1.24121094 97.29101562 C0.71922119 97.89792236 0.19723145 98.5048291 -0.34057617 99.13012695 C-1.35103903 100.30215049 -2.36464841 101.47147212 -3.38208008 102.63745117 C-7.04115585 106.85984262 -10.41520444 111.25545225 -13.71972656 115.75976562 C-13.1097583 115.73358154 -12.49979004 115.70739746 -11.87133789 115.68041992 C-9.09189898 115.57610844 -6.31287217 115.5113358 -3.53222656 115.44726562 C-2.57251953 115.40537109 -1.6128125 115.36347656 -0.62402344 115.3203125 C6.52796044 115.19657575 6.52796044 115.19657575 10.09277344 117.86523438 C10.81464844 118.82042969 11.53652344 119.775625 12.28027344 120.75976562 C13.21745761 121.82052348 14.16187592 122.87492081 15.11230469 123.92382812 C19.90217666 129.44876765 24.62861773 135.02986641 29.09277344 140.82226562 C29.73859375 141.65886719 30.38441406 142.49546875 31.04980469 143.35742188 C32.28027344 145.75976563 32.28027344 145.75976563 32.16699219 148.44335938 C31.28027344 150.75976562 31.28027344 150.75976562 28.28027344 152.75976562 C25.87363434 153.01424122 25.87363434 153.01424122 22.96643066 153.02046204 C21.86438797 153.02754684 20.76234528 153.03463165 19.62690735 153.04193115 C18.41745956 153.03945374 17.20801178 153.03697632 15.96191406 153.03442383 C14.68857712 153.03953476 13.41524017 153.04464569 12.10331726 153.0499115 C8.60957411 153.06331263 5.11593906 153.06387904 1.62217522 153.0613482 C-1.29299146 153.06027941 -4.20813619 153.06515939 -7.12329817 153.06995362 C-13.99904487 153.08105228 -20.87473695 153.08148396 -27.75048828 153.07543945 C-34.84819368 153.06939589 -41.94570103 153.08171942 -49.04337263 153.10300952 C-55.13431295 153.1206093 -61.22519014 153.12662953 -67.31615496 153.12337178 C-70.95534683 153.12155644 -74.59439738 153.12421997 -78.23356628 153.13808632 C-82.28963137 153.15296278 -86.34529157 153.14370887 -90.40136719 153.13208008 C-91.61081497 153.13972382 -92.82026276 153.14736755 -94.06636047 153.15524292 C-95.16840317 153.14822861 -96.27044586 153.14121429 -97.40588379 153.13398743 C-98.365261 153.13415517 -99.32463821 153.13432291 -100.31308746 153.13449574 C-102.71972656 152.75976562 -102.71972656 152.75976562 -104.55208588 151.41191387 C-105.71972656 149.75976562 -105.71972656 149.75976562 -105.71582031 146.95117188 C-104.50599979 143.07500182 -102.47494256 140.62563408 -99.78222656 137.69726562 C-98.78220491 136.56677046 -97.78487905 135.43388584 -96.79003906 134.29882812 C-96.28118164 133.72036133 -95.77232422 133.14189453 -95.24804688 132.54589844 C-92.31211628 129.11470543 -89.61318314 125.50144326 -86.89379883 121.89819336 C-85.25142867 119.72822242 -83.6472309 117.68726996 -81.71972656 115.75976562 C-79.47314453 115.53271484 -79.47314453 115.53271484 -76.71191406 115.56445312 C-75.23271484 115.57412109 -75.23271484 115.57412109 -73.72363281 115.58398438 C-72.17482422 115.60912109 -72.17482422 115.60912109 -70.59472656 115.63476562 C-69.03431641 115.64830078 -69.03431641 115.64830078 -67.44238281 115.66210938 C-64.86793564 115.68572816 -62.29394444 115.71866414 -59.71972656 115.75976562 C-64.03675748 110.44075716 -68.37285658 105.14641583 -72.83129883 99.94555664 C-81.13577661 90.23631226 -89.11219845 80.84775116 -93.71972656 68.75976562 C-94.19732422 67.66728516 -94.19732422 67.66728516 -94.68457031 66.55273438 C-99.54603777 53.76057806 -97.88105593 37.15917227 -92.71972656 24.75976562 C-85.30953609 9.17148929 -73.24892783 -2.44185159 -57.40722656 -9.30273438 C-38.04585128 -15.62570603 -16.30186662 -11.75659887 0 0 Z " fill="#06C65B" transform="translate(186.7197265625,78.240234375)"/>
<path d="M0 0 C0.78246094 0.44472656 1.56492188 0.88945313 2.37109375 1.34765625 C3.44359375 1.94578125 4.51609375 2.54390625 5.62109375 3.16015625 C14.06897259 9.88005987 21.8907169 18.19655671 23.37109375 29.34765625 C24.41186619 43.80159226 22.85079823 55.79290126 13.37109375 67.34765625 C4.36455841 76.78396402 -7.01593112 81.28364285 -20.00390625 81.84765625 C-31.01196724 81.546961 -40.78152095 76.98004469 -48.62890625 69.34765625 C-58.38219659 58.93509778 -61.04287303 47.708881 -60.83984375 33.8125 C-60.45063211 22.20101952 -54.1784223 13.13164179 -45.984375 5.20703125 C-33.00765944 -5.03661155 -14.89121304 -7.41462619 0 0 Z " fill="#FBFDFC" transform="translate(168.62890625,87.65234375)"/>
<path d="M0 0 C4.65738615 0.1268478 7.86630815 0.27227518 11.94873047 2.62426758 C14.22395171 5.21105064 15.95885949 7.83121965 17.74169922 10.77661133 C19.3625847 12.796883 21.00847089 14.7973604 22.67919922 16.77661133 C23.41009766 17.68411133 24.14099609 18.59161133 24.89404297 19.52661133 C26.69775082 21.79780882 26.69775082 21.79780882 28.74169922 23.77661133 C31.56134691 23.86580932 33.1740348 23.29108557 35.26855469 21.39282227 C36.9701135 19.52605851 38.58248261 17.60875636 40.17919922 15.65161133 C40.72640625 14.9993457 41.27361328 14.34708008 41.83740234 13.67504883 C42.38203125 13.02536133 42.92666016 12.37567383 43.48779297 11.70629883 C44.03685303 11.05790039 44.58591309 10.40950195 45.15161133 9.74145508 C46.7631099 7.81053246 46.7631099 7.81053246 48.09936523 5.74926758 C50.19162811 2.80095957 51.61388649 1.06527568 55.19311523 0.14916992 C58.09675112 -0.09384427 60.89298434 -0.08099793 63.80419922 0.02661133 C64.78453125 0.01629883 65.76486328 0.00598633 66.77490234 -0.00463867 C71.28366401 0.06882384 73.90329117 0.14257976 77.56201172 2.90942383 C78.64095703 4.32868164 78.64095703 4.32868164 79.74169922 5.77661133 C80.67927714 6.83702117 81.62367906 7.89142471 82.57373047 8.94067383 C87.36360244 14.46561335 92.09004351 20.04671211 96.55419922 25.83911133 C97.20001953 26.67571289 97.84583984 27.51231445 98.51123047 28.37426758 C99.74169922 30.77661133 99.74169922 30.77661133 99.62841797 33.46020508 C98.74169922 35.77661133 98.74169922 35.77661133 95.74169922 37.77661133 C93.33506012 38.03108692 93.33506012 38.03108692 90.42785645 38.03730774 C89.32581375 38.04439255 88.22377106 38.05147736 87.08833313 38.05877686 C85.87888535 38.05629944 84.66943756 38.05382202 83.42333984 38.05126953 C82.1500029 38.05638046 80.87666595 38.06149139 79.56474304 38.0667572 C76.07099989 38.08015833 72.57736484 38.08072474 69.083601 38.0781939 C66.16843432 38.07712512 63.2532896 38.08200509 60.33812761 38.08679932 C53.46238091 38.09789798 46.58668883 38.09832966 39.7109375 38.09228516 C32.6132321 38.0862416 25.51572475 38.09856513 18.41805315 38.11985523 C12.32711283 38.137455 6.23623565 38.14347524 0.14527082 38.14021748 C-3.49392105 38.13840215 -7.1329716 38.14106568 -10.7721405 38.15493202 C-14.82820559 38.16980848 -18.88386578 38.16055458 -22.93994141 38.14892578 C-24.75411308 38.16039139 -24.75411308 38.16039139 -26.60493469 38.17208862 C-27.70697739 38.16507431 -28.80902008 38.15806 -29.94445801 38.15083313 C-30.90383522 38.15100087 -31.86321243 38.15116861 -32.85166168 38.15134144 C-35.25830078 37.77661133 -35.25830078 37.77661133 -37.0906601 36.42875957 C-38.25830078 34.77661133 -38.25830078 34.77661133 -38.25439453 31.96801758 C-37.04457401 28.09184752 -35.01351678 25.64247979 -32.32080078 22.71411133 C-31.32077913 21.58361617 -30.32345327 20.45073154 -29.32861328 19.31567383 C-28.81975586 18.73720703 -28.31089844 18.15874023 -27.78662109 17.56274414 C-24.8506905 14.13155113 -22.15175736 10.51828896 -19.43237305 6.91503906 C-13.70755358 -0.64884158 -9.15084416 0.07619878 0 0 Z " fill="#276CF6" transform="translate(119.25830078125,193.223388671875)"/>
<path d="M0 0 C0.99 0 1.98 0 3 0 C3.3196875 0.97582031 3.639375 1.95164062 3.96875 2.95703125 C6.49867775 10.08519104 6.49867775 10.08519104 11.90185547 14.95751953 C16.51638465 16.34728469 21.20369689 16.75816959 26 17 C26 18.32 26 19.64 26 21 C24.34154035 22.45473883 22.62314277 23.84185877 20.875 25.1875 C17.22383843 28.54615657 17.22383843 28.54615657 15.72265625 33.12451172 C15.85124388 38.19193591 16.84645664 43.07745358 18 48 C17.01 48.33 16.02 48.66 15 49 C11.63078527 47.28872339 8.4547924 45.33400596 5.2265625 43.37109375 C2.14734871 41.68230447 2.14734871 41.68230447 -0.66015625 42.65234375 C-1.43230469 43.09707031 -2.20445312 43.54179687 -3 44 C-4.03833984 44.52980469 -4.03833984 44.52980469 -5.09765625 45.0703125 C-6.41174745 45.77568948 -7.7242439 46.4840452 -9.03515625 47.1953125 C-11 48 -11 48 -15 48 C-14.81179687 46.81664062 -14.62359375 45.63328125 -14.4296875 44.4140625 C-13.04954008 35.14656064 -13.04954008 35.14656064 -16.16015625 26.68359375 C-18.87214872 24.04195405 -18.87214872 24.04195405 -21.77734375 21.84765625 C-22.51082031 21.23792969 -23.24429688 20.62820312 -24 20 C-24 19.01 -24 18.02 -24 17 C-18.23918159 15.7017874 -12.91260345 14.74293028 -7 15 C-6.773125 14.195625 -6.54625 13.39125 -6.3125 12.5625 C-4.66368412 8.08714261 -2.39455588 4.11278682 0 0 Z " fill="#09C75D" transform="translate(149,102)"/>
<path d="M0 0 C18.27781877 -1.62502834 18.27781877 -1.62502834 24.08203125 1.83984375 C26.35621225 4.43363937 28.16173291 7.08266627 30 10 C31.63636901 12.08796222 33.35031766 14.09720801 35.0625 16.125 C36.37750994 17.74796953 37.69096056 19.37221101 39 21 C38.01 21.495 38.01 21.495 37 22 C34.99145508 21.15478516 34.99145508 21.15478516 32.51953125 19.7890625 C31.60896973 19.28995361 30.6984082 18.79084473 29.76025391 18.27661133 C28.78749512 17.73157959 27.81473633 17.18654785 26.8125 16.625 C25.82685059 16.07932373 24.84120117 15.53364746 23.82568359 14.97143555 C17.88042748 11.66222882 11.97154811 8.29329636 6.125 4.8125 C5.4956958 4.43883301 4.8663916 4.06516602 4.21801758 3.68017578 C2.7930889 2.81728536 1.39302766 1.91349633 0 1 C0 0.67 0 0.34 0 0 Z " fill="#175ADC" transform="translate(107,194)"/>
<path d="M0 0 C1.46179688 0.04737305 1.46179688 0.04737305 2.953125 0.09570312 C5.34688977 0.17784211 7.73435168 0.29258327 10.125 0.4375 C7.70576073 3.14815335 5.13264021 4.66816233 1.93359375 6.36328125 C0.39155273 7.18795898 0.39155273 7.18795898 -1.18164062 8.02929688 C-2.25607422 8.59712891 -3.33050781 9.16496094 -4.4375 9.75 C-6.54418284 10.86881064 -8.64966475 11.9898857 -10.75390625 13.11328125 C-12.28942139 13.9323999 -12.28942139 13.9323999 -13.85595703 14.76806641 C-17.63746521 16.85911872 -21.2921656 19.12619432 -24.92944336 21.45776367 C-25.57147705 21.78107666 -26.21351074 22.10438965 -26.875 22.4375 C-27.535 22.1075 -28.195 21.7775 -28.875 21.4375 C-20.0859375 11.18359375 -20.0859375 11.18359375 -18.45263672 9.32592773 C-16.84497491 7.46743609 -16.84497491 7.46743609 -15.52001953 5.42602539 C-11.24492171 -0.61161277 -7.05022421 -0.43466829 0 0 Z " fill="#1154D1" transform="translate(182.875,193.5625)"/>
<path d="M0 0 C0.78246094 0.44472656 1.56492188 0.88945313 2.37109375 1.34765625 C3.44359375 1.94578125 4.51609375 2.54390625 5.62109375 3.16015625 C9.51302504 6.25601068 12.93742921 9.75712379 16.37109375 13.34765625 C14.88609375 13.84265625 14.88609375 13.84265625 13.37109375 14.34765625 C12.89800781 13.8165625 12.42492187 13.28546875 11.9375 12.73828125 C4.6551108 4.95904289 -3.79216687 0.80886486 -14.56640625 0.08203125 C-15.92057284 0.07680281 -17.27481901 0.08209203 -18.62890625 0.09765625 C-19.30179688 0.08992188 -19.9746875 0.0821875 -20.66796875 0.07421875 C-25.31361577 0.09215561 -29.20697328 1.00832078 -33.62890625 2.34765625 C-34.94890625 2.34765625 -36.26890625 2.34765625 -37.62890625 2.34765625 C-37.62890625 3.00765625 -37.62890625 3.66765625 -37.62890625 4.34765625 C-38.53382813 4.81945312 -38.53382813 4.81945312 -39.45703125 5.30078125 C-43.72245266 7.58484562 -47.44393421 9.60877602 -50.62890625 13.34765625 C-51.28890625 13.01765625 -51.94890625 12.68765625 -52.62890625 12.34765625 C-39.22029416 -2.88940295 -18.90242159 -9.41188537 0 0 Z " fill="#D8E0DC" transform="translate(168.62890625,87.65234375)"/>
<path d="M0 0 C1.54300781 -0.00483398 1.54300781 -0.00483398 3.1171875 -0.00976562 C11.54709432 0.04922227 19.04442688 0.91374255 26.5625 4.9375 C27.40941406 5.38351563 28.25632813 5.82953125 29.12890625 6.2890625 C30.05509766 6.79566406 30.05509766 6.79566406 31 7.3125 C27.90100795 8.30125764 27.29285509 8.44916571 24.1875 7 C23.135625 6.443125 22.08375 5.88625 21 5.3125 C14.5305738 2.89296929 8.28781807 3.01462358 1.4375 3.0625 C0.32697266 3.05476563 -0.78355469 3.04703125 -1.92773438 3.0390625 C-7.38923909 3.05213612 -11.8710226 3.24790371 -17 5.3125 C-19.33212027 5.38772969 -21.6685311 5.40575876 -24 5.3125 C-16.46833601 0.29139067 -8.85257543 -0.13866816 0 0 Z " fill="#36D17B" transform="translate(149,66.6875)"/>
<path d="M0 0 C1.59424805 -0.01836914 1.59424805 -0.01836914 3.22070312 -0.03710938 C4.23970703 -0.03904297 5.25871094 -0.04097656 6.30859375 -0.04296875 C7.24372803 -0.04707764 8.1788623 -0.05118652 9.14233398 -0.05541992 C11.5625 0.1875 11.5625 0.1875 14.5625 2.1875 C13.9327124 2.17702637 13.3029248 2.16655273 12.65405273 2.15576172 C9.76940994 2.1138977 6.88483134 2.08807799 4 2.0625 C3.00935547 2.04574219 2.01871094 2.02898437 0.99804688 2.01171875 C-4.61333932 1.97443379 -9.11676742 2.44816142 -14.4375 4.1875 C-15.7575 4.1875 -17.0775 4.1875 -18.4375 4.1875 C-18.4375 4.8475 -18.4375 5.5075 -18.4375 6.1875 C-19.34242188 6.65929687 -19.34242188 6.65929687 -20.265625 7.140625 C-24.53104641 9.42468937 -28.25252796 11.44861977 -31.4375 15.1875 C-32.0975 14.8575 -32.7575 14.5275 -33.4375 14.1875 C-32.00314079 12.7260774 -30.56489414 11.26846951 -29.125 9.8125 C-28.32449219 9.00039062 -27.52398437 8.18828125 -26.69921875 7.3515625 C-23.73603882 4.51632643 -21.32894261 3.00447509 -17.375 2.125 C-11.2623525 0.7476623 -6.43554903 0.00388855 0 0 Z " fill="#EDEDED" transform="translate(149.4375,85.8125)"/>
<path d="M0 0 C0.33 0.66 0.66 1.32 1 2 C0.01 3.32 -0.98 4.64 -2 6 C3.28 6.66 8.56 7.32 14 8 C14 8.33 14 8.66 14 9 C7.4 9 0.8 9 -6 9 C-4.25618453 5.51236907 -2.47193291 2.96631949 0 0 Z " fill="#D6E1E9" transform="translate(179,185)"/>
<path d="M0 0 C1.15693359 0.00644531 2.31386719 0.01289062 3.50585938 0.01953125 C4.70404297 0.03628906 5.90222656 0.05304688 7.13671875 0.0703125 C8.96299805 0.08384766 8.96299805 0.08384766 10.82617188 0.09765625 C13.82572149 0.12118213 16.82486919 0.15405597 19.82421875 0.1953125 C19.82421875 0.5253125 19.82421875 0.8553125 19.82421875 1.1953125 C19.2194873 1.21513184 18.61475586 1.23495117 17.99169922 1.25537109 C15.22713366 1.35117549 12.46326701 1.46062805 9.69921875 1.5703125 C8.74789062 1.60125 7.7965625 1.6321875 6.81640625 1.6640625 C1.76100759 1.87470411 -2.40051941 2.39003058 -7.17578125 4.1953125 C-9.50790152 4.27054219 -11.84431235 4.28857126 -14.17578125 4.1953125 C-9.3602405 0.984952 -5.78852055 -0.05702976 0 0 Z " fill="#16CB67" transform="translate(139.17578125,67.8046875)"/>
<path d="M0 0 C-0.99 0.495 -0.99 0.495 -2 1 C-2 1.66 -2 2.32 -2 3 C-2.90492188 3.47179687 -2.90492188 3.47179687 -3.828125 3.953125 C-8.09354641 6.23718937 -11.81502796 8.26111977 -15 12 C-15.66 11.67 -16.32 11.34 -17 11 C-15.56564079 9.5385774 -14.12739414 8.08096951 -12.6875 6.625 C-11.88699219 5.81289062 -11.08648437 5.00078125 -10.26171875 4.1640625 C-6.7446177 0.79882246 -4.81140049 -0.2600757 0 0 Z " fill="#E0E3E2" transform="translate(133,89)"/>
<path d="M0 0 C0 3.71946442 -0.88871542 4.40514236 -3.3125 7.125 C-4.23482422 8.18074219 -4.23482422 8.18074219 -5.17578125 9.2578125 C-7 11 -7 11 -10 12 C-8.52278578 8.54798361 -6.56205999 6.35038064 -3.875 3.75 C-3.15054688 3.04359375 -2.42609375 2.3371875 -1.6796875 1.609375 C-1.12539062 1.07828125 -0.57109375 0.5471875 0 0 Z " fill="#F2F0F2" transform="translate(174,123)"/>
<path d="M0 0 C-0.99 0 -1.98 0 -3 0 C-3 0.66 -3 1.32 -3 2 C-5.95664519 3.4783226 -8.74229737 3.06032783 -12 3 C-4.82142857 -1.78571429 -4.82142857 -1.78571429 0 0 Z " fill="#47D586" transform="translate(137,69)"/>
<path d="M0 0 C2.3125 0.8125 2.3125 0.8125 4 2 C0.535 3.485 0.535 3.485 -3 5 C-3.66 4.34 -4.32 3.68 -5 3 C-2.75 1.375 -2.75 1.375 0 0 Z " fill="#DDE7E1" transform="translate(149,143)"/>
<path d="M0 0 C0.6875 1.6875 0.6875 1.6875 1 4 C-0.3125 6.75 -0.3125 6.75 -2 9 C-2.66 9 -3.32 9 -4 9 C-2.94124926 5.59687262 -1.99097846 2.98646769 0 0 Z " fill="#DDE7E1" transform="translate(115,101)"/>
</svg>
