<?xml version="1.0" encoding="UTF-8"?>
<svg version="1.1" xmlns="http://www.w3.org/2000/svg" width="240" height="240">
<path d="M0 0 C79.2 0 158.4 0 240 0 C240 79.2 240 158.4 240 240 C160.8 240 81.6 240 0 240 C0 160.8 0 81.6 0 0 Z " fill="#6638EB" transform="translate(0,0)"/>
<path d="M0 0 C30.03 0 60.06 0 91 0 C96.30407509 10.01880851 101.46109154 19.8395334 106.125 30.125 C107.23870539 32.55312033 108.35390838 34.98045782 109.47265625 37.40625 C109.757957 38.02521149 110.04325775 38.64417297 110.33720398 39.28189087 C113.64949826 46.44275509 117.10720075 53.53236902 120.5625 60.625 C125.42895247 70.62352456 130.21500014 80.65345172 134.875 90.75 C135.3810376 91.84521973 135.8870752 92.94043945 136.40844727 94.06884766 C139.86624229 101.59872688 139.86624229 101.59872688 141 105 C121.86 105 102.72 105 83 105 C76.25621025 90.38845554 76.25621025 90.38845554 74.17578125 85.30078125 C73.70994629 84.16608398 73.24411133 83.03138672 72.76416016 81.86230469 C72.04558838 80.10515137 72.04558838 80.10515137 71.3125 78.3125 C70.79544455 77.06254177 70.27769003 75.8128725 69.75927734 74.56347656 C67.37309642 68.80706295 65.00665839 63.04558915 62.72764587 57.24577332 C61.54252876 54.24087591 60.33017622 51.24689809 59.125 48.25 C58.69743408 47.13149658 58.26986816 46.01299316 57.8293457 44.8605957 C57.20612427 43.32858521 57.20612427 43.32858521 56.5703125 41.765625 C56.04074951 40.41645996 56.04074951 40.41645996 55.50048828 39.04003906 C54.08732614 36.6656425 54.08732614 36.6656425 50.83935547 36.20214844 C49.90236816 36.13543945 48.96538086 36.06873047 48 36 C48.495 37.794375 48.495 37.794375 49 39.625 C51.93829758 53.13271332 50.2795048 68.45433505 43.5625 80.62890625 C33.93205237 95.24311052 19.81664199 102.6214967 2.94921875 106.12890625 C-3.76088891 107.2901165 -10.39676226 107.22018015 -17.1875 107.125 C-18.42564453 107.11597656 -19.66378906 107.10695313 -20.93945312 107.09765625 C-23.95984511 107.07433276 -26.97981399 107.04160477 -30 107 C-32.70884789 97.35383707 -35.05101033 87.65038996 -37.25 77.875 C-37.52021973 76.6893042 -37.79043945 75.5036084 -38.06884766 74.28198242 C-38.31940918 73.1551001 -38.5699707 72.02821777 -38.828125 70.8671875 C-39.0540332 69.85769043 -39.27994141 68.84819336 -39.51269531 67.80810547 C-39.97604235 65.13805656 -40.09279252 62.70273673 -40 60 C-39.26475098 59.9906543 -38.52950195 59.98130859 -37.77197266 59.97167969 C-34.38900851 59.91746722 -31.0073525 59.83392029 -27.625 59.75 C-26.46871094 59.73582031 -25.31242187 59.72164062 -24.12109375 59.70703125 C-15.81071962 59.47227492 -7.89192904 58.59254988 -1.5625 52.75 C2.39663119 45.78192911 3.49818425 39.95729051 3.375 32.0625 C3.36919922 31.15314697 3.36339844 30.24379395 3.35742188 29.30688477 C3.21642505 21.82295618 2.19255014 14.68355439 0.65625 7.37109375 C0 4 0 4 0 0 Z " fill="#FDFDFE" transform="translate(70,68)"/>
</svg>
